<svg id="SvgjsSvg1047" width="288" height="288" xmlns="http://www.w3.org/2000/svg" version="1.1" xmlns:xlink="http://www.w3.org/1999/xlink" xmlns:svgjs="http://svgjs.com/svgjs"><defs id="SvgjsDefs1048"></defs><g id="SvgjsG1049"><svg xmlns="http://www.w3.org/2000/svg" xmlns:xlink="http://www.w3.org/1999/xlink" enable-background="new 0 0 560 400" viewBox="0 0 560 400" width="288" height="288"><g transform="matrix(1.02041 0 0 .99592 -2.143 1.314)" fill="#00e0ff" class="color000 svgShape"><path fill="#e8ffe8" fill-rule="evenodd" d="M414.7,115c0-29.6-23.5-53.7-52.4-53.7H190.7c-28.9,0-52.4,24-52.4,53.7v169c0,29.6,23.5,53.7,52.4,53.7h171.6
		c28.9,0,52.4-24,52.4-53.7V115z" clip-rule="evenodd" class="colorebebeb svgShape"></path><defs><path id="a" d="M414.7,115c0-29.6-23.5-53.7-52.4-53.7H190.7c-28.9,0-52.4,24-52.4,53.7v169c0,29.6,23.5,53.7,52.4,53.7
				h171.6c28.9,0,52.4-24,52.4-53.7V115z" fill="#00e0ff" class="color000 svgShape"></path></defs><clipPath id="b"><use overflow="visible" xlink:href="#a"></use></clipPath><g clip-path="url(#b)" fill="#00e0ff" class="color000 svgShape"><image width="522" height="509" enable-background="new" overflow="visible" transform="matrix(.5306 0 0 .5437 138.012 61.14)" xlink:href="4AEFD8B1.jpeg"></image></g></g><path fill="#a6fff2" d="M361.5,147.2c-14.3-15.4-34.5-24.1-55.5-24c-20.5,0-41.4,8.8-54.8,23c-2.4-0.3-4.9-0.4-7.4-0.4
	c-40.3,0-65.2,33.9-65.2,65.2c0.1,16.9,6.7,33.2,18.3,45.5c12.1,13,29.1,20.3,46.9,20.3H306c42.2,0,76.5-34.6,76.5-77.1
	C382.3,180.2,374.9,161.5,361.5,147.2L361.5,147.2z M242.7,265.8c-29.6,0-54-24.4-54-54.1c0-29.5,24.2-53.9,53.8-54.1
	c13.2,0,26,4.8,35.9,13.7l0.3,0.2l22.4,23c1.7,1.8,2.7,4.2,2.7,6.7c0,5.3-4.3,9.6-9.6,9.6c-2.6,0-5.1-1.1-6.9-2.9L265,185.1
	c-6.3-5.4-14.2-8.3-22.5-8.3c-18.9,0-34.4,15.5-34.5,34.4c0,18.9,16.1,34.9,35.2,34.9l4.4,0l0,0.1c6.4,8.8,24,19.5,24,19.5H242.7z
	 M353.4,246.3c-12.1,12.6-28.8,19.8-46.3,19.8c-16.6,0-33.5-7.4-46.5-20.3l-29.6-29.7c-1.8-1.8-2.7-4.2-2.8-6.7
	c0-5.3,4.4-9.6,9.6-9.6h0c2.6,0,5.1,1,6.9,2.9l29.4,29.5c9.3,9.4,21.3,14.7,32.9,14.7c12.3,0,24.1-5.1,32.5-14.1
	c8.7-8.9,13.5-20.9,13.5-33.3c0-25.3-20.9-46.2-46.2-46.2c-9.7,0-17.8,1.9-25.6,7.5c-0.1-0.1-2.2-1.5-4.6-2.9
	c-1.4-0.9-2.9-1.7-4.4-2.5c-1.4-0.8-5.4-2.7-7.8-3.7c-0.6-0.2-1.1-0.4-1.7-0.6l0.1,0c12.2-11.4,27.3-16.9,44-16.9
	c35.9,0,65.5,29.6,65.5,65.5C372.5,217,365.7,233.8,353.4,246.3L353.4,246.3z" class="colorfff svgShape"></path></svg></g></svg>